solid Created by Gmsh
facet normal 0 0 1
  outer loop
    vertex -1 -0.5 1
    vertex -0.7 -0 1
    vertex -1 0.5 1
  endloop
endfacet
facet normal 0 -0 1
  outer loop
    vertex -0.7 -0 1
    vertex -0.7 0.5 1
    vertex -1 0.5 1
  endloop
endfacet
facet normal 0 0 1
  outer loop
    vertex -1 -0.5 1
    vertex 0 -0.5 1
    vertex -0.4249999999999999 -0.25 1
  endloop
endfacet
facet normal 0 0 1
  outer loop
    vertex -0.7 -0 1
    vertex -1 -0.5 1
    vertex -0.4249999999999999 -0.25 1
  endloop
endfacet
facet normal 0 -0 1
  outer loop
    vertex 0 -0.5 1
    vertex 0 -0 1
    vertex -0.4249999999999999 -0.25 1
  endloop
endfacet
facet normal 0 0 1
  outer loop
    vertex 0 -0 1
    vertex -0.7 -0 1
    vertex -0.4249999999999999 -0.25 1
  endloop
endfacet
facet normal 0 1 0
  outer loop
    vertex -0.7 0.5 1
    vertex -0.7 0.5 0
    vertex -1 0.5 0
  endloop
endfacet
facet normal 0 1 0
  outer loop
    vertex -0.7 0.5 1
    vertex -1 0.5 0
    vertex -1 0.5 1
  endloop
endfacet
facet normal -1 0 0
  outer loop
    vertex -0.7 0.5 0
    vertex -0.7 -0 0
    vertex -0.7 0.25 0.5
  endloop
endfacet
facet normal -1 0 0
  outer loop
    vertex -0.7 -0 0
    vertex -0.7 -0 1
    vertex -0.7 0.25 0.5
  endloop
endfacet
facet normal -1 0 -0
  outer loop
    vertex -0.7 0.5 1
    vertex -0.7 0.5 0
    vertex -0.7 0.25 0.5
  endloop
endfacet
facet normal -1 0 0
  outer loop
    vertex -0.7 -0 1
    vertex -0.7 0.5 1
    vertex -0.7 0.25 0.5
  endloop
endfacet
facet normal 0 -1 0
  outer loop
    vertex -0.7 -0 0
    vertex 0 -0 0
    vertex -0.35 0 0.5
  endloop
endfacet
facet normal 0 -1 0
  outer loop
    vertex 0 -0 0
    vertex 0 -0 1
    vertex -0.35 0 0.5
  endloop
endfacet
facet normal 0 -1 0
  outer loop
    vertex -0.7 -0 1
    vertex -0.7 -0 0
    vertex -0.35 0 0.5
  endloop
endfacet
facet normal -0 -1 0
  outer loop
    vertex 0 -0 1
    vertex -0.7 -0 1
    vertex -0.35 0 0.5
  endloop
endfacet
facet normal -1 0 0
  outer loop
    vertex 0 -0 0
    vertex 0 -0.5 0
    vertex 0 -0.25 0.5
  endloop
endfacet
facet normal -1 0 0
  outer loop
    vertex 0 -0.5 0
    vertex 0 -0.5 1
    vertex 0 -0.25 0.5
  endloop
endfacet
facet normal -1 0 -0
  outer loop
    vertex 0 -0 1
    vertex 0 -0 0
    vertex 0 -0.25 0.5
  endloop
endfacet
facet normal -1 0 0
  outer loop
    vertex 0 -0.5 1
    vertex 0 -0 1
    vertex 0 -0.25 0.5
  endloop
endfacet
facet normal -1 0 0
  outer loop
    vertex -1 0.5 0
    vertex -1 -0.5 0
    vertex -1 0 0.5
  endloop
endfacet
facet normal -1 0 -0
  outer loop
    vertex -1 0.5 1
    vertex -1 0.5 0
    vertex -1 0 0.5
  endloop
endfacet
facet normal -1 0 0
  outer loop
    vertex -1 -0.5 0
    vertex -1 -0.5 1
    vertex -1 0 0.5
  endloop
endfacet
facet normal -1 0 0
  outer loop
    vertex -1 -0.5 1
    vertex -1 0.5 1
    vertex -1 0 0.5
  endloop
endfacet
facet normal 0 1 0
  outer loop
    vertex 0 -0.5 0
    vertex -1 -0.5 0
    vertex -0.5 -0.5 0.5
  endloop
endfacet
facet normal 0 1 0
  outer loop
    vertex -1 -0.5 0
    vertex -1 -0.5 1
    vertex -0.5 -0.5 0.5
  endloop
endfacet
facet normal 0 1 0
  outer loop
    vertex 0 -0.5 1
    vertex 0 -0.5 0
    vertex -0.5 -0.5 0.5
  endloop
endfacet
facet normal -0 1 0
  outer loop
    vertex -1 -0.5 1
    vertex 0 -0.5 1
    vertex -0.5 -0.5 0.5
  endloop
endfacet
facet normal 0 0 -1
  outer loop
    vertex -1 0.5 0
    vertex -0.7 -0 0
    vertex -1 -0.5 0
  endloop
endfacet
facet normal 0 0 -1
  outer loop
    vertex -1 0.5 0
    vertex -0.7 0.5 0
    vertex -0.7 -0 0
  endloop
endfacet
facet normal 0 0 -1
  outer loop
    vertex 0 -0.5 0
    vertex -1 -0.5 0
    vertex -0.4249999999999999 -0.25 0
  endloop
endfacet
facet normal 0 0 -1
  outer loop
    vertex -1 -0.5 0
    vertex -0.7 -0 0
    vertex -0.4249999999999999 -0.25 0
  endloop
endfacet
facet normal 0 -0 -1
  outer loop
    vertex 0 -0 0
    vertex 0 -0.5 0
    vertex -0.4249999999999999 -0.25 0
  endloop
endfacet
facet normal 0 0 -1
  outer loop
    vertex -0.7 -0 0
    vertex 0 -0 0
    vertex -0.4249999999999999 -0.25 0
  endloop
endfacet
endsolid Created by Gmsh
